<?xml version="1.0" encoding="UTF-8"?>
<svg id="Layer_1" data-name="Layer 1" xmlns="http://www.w3.org/2000/svg" viewBox="0 0 468 192">
  <defs>
    <style>
      .cls-1 {
        fill: #00a85e;
      }
    </style>
  </defs>
  <path class="cls-1" d="M256.19,106.16c.98,3.86,2.87,7.26,5.44,9.91-2.75,1.98-6.1,3.15-9.9,3.15-4.21,0-7.89-1.28-10.8-4.45v15.2h-10.73v-47.87h10.09v3.95h.2c2.85-3.56,6.79-5.17,11.25-5.17,3.82,0,7.21,1.15,9.98,3.2-2.6,2.67-4.52,6.06-5.51,9.89-1.63-1.87-4.02-3.06-6.79-3.06-4.93,0-8.93,4.01-8.93,9.18s3.88,9.12,8.99,9.12c2.72,0,5.1-1.18,6.72-3.03Z"/>
  <path class="cls-1" d="M284.47,83.34c-2.18-1.63-5.08-2.47-8.14-2.47-10.29,0-17.98,8.53-17.98,19.15s7.38,19.21,17.98,19.21c4.72,0,8.99-1.93,10.55-5.1h.13v3.92h8.66l.69-1.85-11.89-32.85ZM278.01,109.19c-4.98,0-8.93-4.08-8.93-9.05s3.89-9.25,8.8-9.25,9.12,4.08,9.12,9.12-3.95,9.18-8.99,9.18Z"/>
  <path class="cls-1" d="M294.35,129.96l5.14-13.75-12.35-34.1,10.65-.02,7.18,19.82,7.46-19.72h10.71s-18.15,47.76-18.15,47.76h-10.66Z"/>
  <path class="cls-1" d="M326.12,95.09c0-14.84,10.47-25.99,24.74-25.99s24.81,10.82,24.81,24.57-10.79,25.22-24.24,25.22-25.32-9.59-25.32-23.79ZM363.69,94.06c0-7.52-5.27-14.2-12.82-14.2s-12.75,6.42-12.75,14,5.27,14.26,12.94,14.26,12.63-6.42,12.63-14.07Z"/>
  <path class="cls-1" d="M399.58,84c-.51-3.43-1.9-4.67-4.25-4.67-2.22,0-4.12,1.62-4.12,3.76,0,2.85,2.54,4.15,7.68,6.42,10.34,4.54,12.94,8.36,12.94,14.65,0,9.27-6.22,14.72-16.37,14.72s-16.94-5.45-16.94-15.75v-1.04h11.93c.06,3.95,1.97,6.55,4.95,6.55,2.47,0,4.5-2.01,4.5-4.6,0-3.83-5.2-5.51-9.45-7.26-7.68-3.18-11.17-7.33-11.17-13.55,0-8.17,7.74-14.13,16.37-14.13,3.11,0,5.84.71,8.31,2.01,5.01,2.66,7.42,6.48,7.49,12.9h-11.86Z"/>
  <g>
    <path class="cls-1" d="M206.69,62.43c-10.16-41.4-49.42-42.69-85.12-41.69-21.25.59-43.53,2.68-58.05,20.01-15.34,18.31-14.17,51.83-13.14,74.44,2.12,46.39,19.28,63.02,65.51,65.11,35.51,1.6,78.44,2.57,90.16-38.84,5.37-18.98,5.34-59.84.64-79.02ZM172.24,136.3c-1.92,1.89-4.38,3.43-6.55,5.03-1.01.72-.99-.46-.98-1.19-.04-9.06-13.14-4.93-19.01-4.56-5.05.48-10.99.27-14.4-3.76-.68-.77-1.24-.79-1.93-.04-8.17,10.61-32.34-5.2-33.9,8.47-.04.8-.34,1.79-1.3,1.2-1.99-1.16-3.9-2.66-5.7-4.11-1.08-.79-1.18-2.16-.72-3.41,4.42-13.99,20.64-8.57,31.74-7.98,4.73.01,6.47-2.56,6.63-6.91.05-1.16.94-1.52,2.08-1.48h.13c1.49-.02,3.33-.04,4.86.05.53.03.89.36,1.05.84.15.5.17,1.01.22,1.54.46,7.86,7.69,5.84,12.86,5.41,7.79-1.09,17.67-2.96,23.03,4.18,1.16,1.64,3.36,4.94,1.89,6.72ZM162.42,121.74c-2.29-.2-4.93-.38-7.29-.25-4.54.17-10.42,1.92-15.08,1.39-1.14-.07-2.14-.62-2.38-1.77-.41-1.72.02-3.94-1.16-5.22-1.42-1.56-3.64-.95-5.62-1.17-2.57.03-6.71-.7-7.74,2.36-.56,2.71.37,6.1-3.65,5.89-3.73-.07-7.61-.76-11.45-1.19-3-.33-5.9-.55-8.82-.14-1.06.13-2.17.25-3.22-.04-4.56-1.69-8.5-5.16-11.32-9.1-4.85-6.52-4.45-15.25-2.55-22.86,2.48-10.43,4.81-21.64,7.82-31.94.37-.61,1.29-.05,1.83.37,23.12,16.64,54.87,15.41,77.82-.63.46.06.71.89.83,1.41,3.18,12.98,7.07,26.25,8.83,39.49v.14c.99,9.6-7.17,21.84-16.84,23.26Z"/>
    <path class="cls-1" d="M121.85,91.08c-.38-.11-.73-.19-1.38.07-1.33.53-2.58.95-4.51,1.09-6.25.45-11.83-3.25-14.05-8.77-.47-1.18-2.01-1.51-2.9-.61-2.82,2.83-4.41,6.85-4.02,11.17.66,7.25,6.95,12.9,14.23,12.76,7.79-.15,13.84-6.53,13.79-14.11,0-.38-.15-.82-.45-1.1-.15-.14-.37-.38-.71-.49Z"/>
    <path class="cls-1" d="M158.3,83.47c-2.21,5.52-7.8,9.22-14.05,8.77-1.92-.14-3.18-.57-4.51-1.09-.65-.26-1.01-.18-1.38-.07-.34.1-.57.35-.71.49-.3.28-.45.73-.45,1.1-.05,7.58,6,13.96,13.79,14.11,7.28.14,13.57-5.51,14.23-12.76.39-4.31-1.21-8.33-4.02-11.17-.9-.9-2.43-.56-2.9.61Z"/>
  </g>
</svg>